<svg width="24" height="24" viewBox="0 0 24 24" fill="none" xmlns="http://www.w3.org/2000/svg">
<path fill-rule="evenodd" clip-rule="evenodd" d="M10.147 5.20344C10.58 5.54344 10.829 6.05044 10.829 6.59444C10.829 10.9794 10.977 12.1594 11.582 12.6084C11.979 12.9014 12.523 12.8984 14.356 12.8474C15.208 12.8224 16.299 12.7904 17.728 12.7904C18.298 12.7904 18.835 13.0344 19.199 13.4594C19.537 13.8544 19.685 14.3704 19.607 14.8784C18.939 19.2034 15.259 22.3444 10.857 22.3444C5.973 22.3444 2 18.3714 2 13.4884C2 9.61644 4.928 5.74444 8.527 4.85844C9.089 4.72144 9.693 4.84944 10.147 5.20344ZM8.982 6.30344C8.95 6.30344 8.918 6.30744 8.886 6.31544C5.916 7.04644 3.5 10.2644 3.5 13.4884C3.5 17.5444 6.8 20.8444 10.857 20.8444C14.514 20.8444 17.57 18.2394 18.124 14.6494C18.128 14.6194 18.142 14.5324 18.06 14.4354C17.982 14.3444 17.858 14.2904 17.728 14.2904C16.317 14.2904 15.24 14.3224 14.399 14.3464C12.363 14.4074 11.521 14.4304 10.689 13.8134C9.49931 12.9321 9.34289 11.4504 9.32998 7.29248L9.329 6.59444C9.329 6.51044 9.293 6.44044 9.221 6.38444C9.154 6.33144 9.069 6.30344 8.982 6.30344ZM20.0504 3.73374C21.8084 5.49074 22.9244 7.79974 22.8924 9.61674C22.8804 10.3257 22.3654 10.9177 21.6694 11.0227C20.3114 11.2277 18.7214 11.2897 17.3144 11.2897C16.0044 11.2897 14.8514 11.2367 14.1884 11.1987C13.3544 11.1497 12.6904 10.4847 12.6424 9.65074C12.5644 8.32874 12.3954 4.96974 12.5154 2.37174C12.5484 1.61674 13.1584 1.01574 13.9044 1.00274C16.0414 0.940742 18.2464 1.93274 20.0504 3.73374ZM14.0324 2.50174H14.0104C13.9004 5.02074 14.0634 8.27474 14.1394 9.56374C14.1434 9.64074 14.1994 9.69674 14.2754 9.70074C15.3034 9.75974 18.8454 9.92374 21.3924 9.54874C21.3984 8.14474 20.4374 6.24074 18.9904 4.79474C17.5064 3.31274 15.7504 2.50174 14.0324 2.50174Z" fill="white"/>
</svg>
