<svg width="24" height="24" viewBox="0 0 24 24" fill="none" xmlns="http://www.w3.org/2000/svg">
<path fill-rule="evenodd" clip-rule="evenodd" d="M11.7541 1.99976C14.2284 1.99976 16.2459 4.00262 16.2728 6.47364L16.492 6.47466C19.254 6.47466 21.5 8.71966 21.5 11.4797V16.9957C21.5 19.7547 19.254 21.9997 16.492 21.9997H7.008C4.247 21.9997 2 19.7547 2 16.9957V11.4797C2 8.71966 4.247 6.47466 7.008 6.47466L7.212 6.47376L7.21834 6.27928C7.28114 5.14482 7.74837 4.10409 8.5501 3.31076C9.4081 2.45976 10.5601 2.03476 11.7541 1.99976ZM16.492 7.97466L16.273 7.97376L16.2731 9.55575C16.2731 9.96975 15.9371 10.3058 15.5231 10.3058C15.1091 10.3058 14.7731 9.96975 14.7731 9.55575L14.773 7.97376H8.711L8.7111 9.55575C8.7111 9.96975 8.3751 10.3058 7.9611 10.3058C7.5471 10.3058 7.2111 9.96975 7.2111 9.55575L7.211 7.97376L7.008 7.97466C5.074 7.97466 3.5 9.54666 3.5 11.4797V16.9957C3.5 18.9277 5.074 20.4997 7.008 20.4997H16.492C18.426 20.4997 20 18.9277 20 16.9957V11.4797C20 9.54666 18.426 7.97466 16.492 7.97466ZM11.7511 3.49976C10.9401 3.52776 10.1801 3.80776 9.6061 4.37576C9.04043 4.9365 8.72338 5.67983 8.71143 6.47366L14.771 6.47376L14.768 6.34638C14.6759 4.76156 13.3586 3.49976 11.7511 3.49976Z" fill="white"/>
</svg>
