<svg width="21" height="22" viewBox="0 0 21 22" fill="none" xmlns="http://www.w3.org/2000/svg">
<path fill-rule="evenodd" clip-rule="evenodd" d="M9.0337 18.4305C9.48695 18.9594 10.0688 19.25 10.6726 19.25H10.6734C11.2798 19.25 11.8643 18.9594 12.3184 18.4296C12.5617 18.1482 12.9764 18.1253 13.2451 18.3792C13.5146 18.6331 13.5364 19.0685 13.2941 19.3499C12.5871 20.1722 11.6569 20.625 10.6734 20.625H10.6717C9.69082 20.6241 8.76245 20.1713 8.05807 19.349C7.8157 19.0676 7.83757 18.6322 8.10707 18.3792C8.37657 18.1244 8.79132 18.1473 9.0337 18.4305ZM10.7161 0.916687C14.6055 0.916687 17.2183 4.09019 17.2183 7.05377C17.2183 8.57819 17.5884 9.22444 17.9813 9.9101C18.3698 10.5866 18.8099 11.3548 18.8099 12.8068C18.5045 16.5165 14.8076 16.819 10.7161 16.819C6.62465 16.819 2.9269 16.5165 2.62501 12.8654C2.6224 11.3548 3.06252 10.5866 3.45102 9.9101L3.58817 9.66825C3.92586 9.06022 4.21402 8.39884 4.21402 7.05377C4.21402 4.09019 6.82677 0.916687 10.7161 0.916687ZM10.7161 2.29169C7.65802 2.29169 5.52652 4.80152 5.52652 7.05377C5.52652 8.95952 5.02165 9.84044 4.5754 10.6178C4.21752 11.242 3.9349 11.7352 3.9349 12.8068C4.08102 14.5356 5.1704 15.444 10.7161 15.444C16.2313 15.444 17.3548 14.4953 17.5 12.7472C17.4974 11.7352 17.2148 11.242 16.8569 10.6178C16.4106 9.84044 15.9058 8.95952 15.9058 7.05377C15.9058 4.80152 13.7743 2.29169 10.7161 2.29169Z" fill="white"/>
</svg>
