<svg width="21" height="22" viewBox="0 0 21 22" fill="none" xmlns="http://www.w3.org/2000/svg">
<path fill-rule="evenodd" clip-rule="evenodd" d="M12.0028 14.62C13.2361 14.62 14.24 15.6154 14.24 16.8389V19.9857C14.24 20.2486 14.4511 20.4594 14.7215 20.4655H16.674C18.2126 20.4655 19.4634 19.2317 19.4634 17.7157V8.79095C19.4562 8.26921 19.2073 7.77817 18.7801 7.45183L12.0263 2.07287C11.1198 1.35574 9.85156 1.35574 8.9419 2.07491L2.23419 7.44979C1.79063 7.78635 1.54171 8.2774 1.53659 8.80834V17.7157C1.53659 19.2317 2.78737 20.4655 4.326 20.4655H6.29693C6.57454 20.4655 6.7999 20.2455 6.7999 19.9755C6.7999 19.9161 6.80707 19.8568 6.81937 19.8005V16.8389C6.81937 15.6226 7.81712 14.6282 9.04127 14.62H12.0028ZM16.674 22H14.7031C13.5742 21.9734 12.7035 21.0885 12.7035 19.9857V16.8389C12.7035 16.4614 12.389 16.1545 12.0028 16.1545H9.04639C8.66839 16.1566 8.35595 16.4645 8.35595 16.8389V19.9755C8.35595 20.0522 8.34571 20.1259 8.32419 20.1954C8.21356 21.2082 7.34693 22 6.29693 22H4.326C1.94019 22 0 20.0778 0 17.7157V8.80118C0.0102439 7.78431 0.479415 6.85337 1.28971 6.24059L7.9841 0.874926C9.45819 -0.291301 11.5121 -0.291301 12.9831 0.87288L19.7257 6.24366C20.5175 6.84621 20.9867 7.7751 21 8.77969V17.7157C21 20.0778 19.0598 22 16.674 22Z" fill="white"/>
</svg>
